<?xml version="1.0" encoding="UTF-8" standalone="no"?>
<!-- Created with Inkscape (http://www.inkscape.org/) -->

<svg
   xmlns:dc="http://purl.org/dc/elements/1.1/"
   xmlns:cc="http://creativecommons.org/ns#"
   xmlns:rdf="http://www.w3.org/1999/02/22-rdf-syntax-ns#"
   xmlns:svg="http://www.w3.org/2000/svg"
   xmlns="http://www.w3.org/2000/svg"
   xmlns:sodipodi="http://sodipodi.sourceforge.net/DTD/sodipodi-0.dtd"
   xmlns:inkscape="http://www.inkscape.org/namespaces/inkscape"
   width="400mm"
   height="210mm"
   viewBox="0 0 1417.3228 744.09448"
   id="svg2"
   version="1.1"
   inkscape:version="0.91 r13725"
   sodipodi:docname="drawing.svg">
  <defs
     id="defs4" />
  <sodipodi:namedview
     id="base"
     pagecolor="#ffffff"
     bordercolor="#666666"
     borderopacity="1.0"
     inkscape:pageopacity="0.0"
     inkscape:pageshadow="2"
     inkscape:zoom="1"
     inkscape:cx="737.93781"
     inkscape:cy="600.91201"
     inkscape:document-units="px"
     inkscape:current-layer="flowRoot3336"
     showgrid="false"
     inkscape:window-width="1855"
     inkscape:window-height="1176"
     inkscape:window-x="65"
     inkscape:window-y="24"
     inkscape:window-maximized="1"
     width="400mm" />
  <metadata
     id="metadata7">
    <rdf:RDF>
      <cc:Work
         rdf:about="">
        <dc:format>image/svg+xml</dc:format>
        <dc:type
           rdf:resource="http://purl.org/dc/dcmitype/StillImage" />
        <dc:title></dc:title>
      </cc:Work>
    </rdf:RDF>
  </metadata>
  <g
     inkscape:label="base"
     inkscape:groupmode="layer"
     id="layer1"
     style="display:inline"
     transform="translate(0,-308.26772)">
    <g
       style="font-style:normal;font-variant:normal;font-weight:normal;font-stretch:normal;font-size:40px;line-height:125%;font-family:'Ubuntu Mono';-inkscape-font-specification:'Ubuntu Mono';letter-spacing:0px;word-spacing:0px;fill:#000000;fill-opacity:1;stroke:none;stroke-width:1px;stroke-linecap:butt;stroke-linejoin:miter;stroke-opacity:1"
       id="flowRoot3336"
       transform="matrix(2.7108241,0,0,2.7108241,-308.32846,45.751959)">
      <path
         d="m 178.12371,202.16855 4.48,0 c 8.36,0 12.6,-2.84 12.6,-8.44 0,-3 -1.48,-5.44 -4.04,-6.64 -2.16,-1 -4.52,-1.4 -8.52,-1.4 l -15.88,0 0,2.2 0.6,0 c 2.08,0 2.92,0.16 3.28,0.56 0.28,0.36 0.28,0.48 0.28,3.04 l 0,17.32 c 0,2.56 0,2.68 -0.28,3.04 -0.36,0.4 -1.2,0.56 -3.28,0.56 l -0.6,0 0,2.16 15.84,0 0,-2.16 -0.88,0 c -2.12,0 -2.96,-0.16 -3.32,-0.56 -0.28,-0.36 -0.28,-0.48 -0.28,-3.04 l 0,-6.64 z m 0,-2.2 0,-9.68 c 0,-1.96 0.4,-2.4 2.2,-2.4 l 1.6,0 c 3.8,0 5.56,1.8 5.56,5.8 0,4.6 -1.88,6.28 -7.04,6.28 l -2.32,0 z"
         style="font-style:normal;font-variant:normal;font-weight:bold;font-stretch:normal;font-family:'Century Schoolbook L';-inkscape-font-specification:'Century Schoolbook L Medium';text-align:center;text-anchor:middle"
         id="path3473"
         inkscape:connector-curvature="0" />
      <path
         d="m 206.43434,185.08855 -9.6,0.6 0,2.04 0.76,0 c 2.44,0 2.56,0.16 2.56,3.72 l 0,17.36 0,1.88 c 0,1.6 -0.44,1.84 -3.04,1.84 l -0.16,0 0,2.04 12.48,0 0,-2.04 -0.28,0 c -0.76,0 -1.84,-0.12 -2.12,-0.28 -0.48,-0.24 -0.6,-0.56 -0.6,-1.56 l 0,-1.88 0,-23.72 z"
         style="font-style:normal;font-variant:normal;font-weight:bold;font-stretch:normal;font-family:'Century Schoolbook L';-inkscape-font-specification:'Century Schoolbook L Medium';text-align:center;text-anchor:middle"
         id="path3475"
         inkscape:connector-curvature="0" />
      <path
         d="m 231.85684,205.44855 0,-0.64 c 0,-5.96 -3.72,-9.76 -9.56,-9.76 -3.2,0 -5.88,1.04 -7.88,3.08 -1.8,1.88 -2.88,4.52 -2.88,7.16 0,2.84 1.24,5.72 3.24,7.44 1.84,1.56 4.52,2.44 7.56,2.44 4.68,0 7.76,-2.08 9.52,-6.36 l -1.96,-0.8 c -1.6,3.12 -3.4,4.44 -6,4.44 -1.84,0 -3.44,-0.88 -4.44,-2.4 -0.68,-1.08 -0.96,-2.32 -1,-4.6 l 13.4,0 z m -13.36,-2.2 c 0,-3.8 1.52,-6.12 3.92,-6.12 2.04,0 3.16,1.68 3.16,4.84 0,0.96 -0.28,1.28 -1.08,1.28 l -6,0 z"
         style="font-style:normal;font-variant:normal;font-weight:bold;font-stretch:normal;font-family:'Century Schoolbook L';-inkscape-font-specification:'Century Schoolbook L Medium';text-align:center;text-anchor:middle"
         id="path3477"
         inkscape:connector-curvature="0" />
      <path
         d="m 253.86559,201.84855 c 0,-2.6 -0.48,-3.84 -1.88,-4.96 -1.48,-1.2 -4,-1.84 -7.12,-1.84 -5.52,0 -9.12,2.04 -9.12,5.16 0,1.72 1.4,3 3.24,3 1.84,0 3.28,-1.12 3.28,-2.6 0,-0.48 -0.2,-1.04 -0.56,-1.52 -0.36,-0.44 -0.36,-0.48 -0.36,-0.68 0,-0.68 1.36,-1.28 2.96,-1.28 2.4,0 3.28,1.04 3.28,3.8 l 0,2.08 c -0.44,0.12 -0.96,0.24 -1.32,0.28 -4.04,0.88 -5.44,1.24 -7.32,2 -2.92,1.2 -4.28,2.8 -4.28,5.2 0,2.96 2.28,4.68 6.16,4.68 3.44,0 5.52,-0.76 7.64,-2.84 0.68,1.8 2.2,2.84 4.24,2.84 2.28,0 4.4,-1.6 4.4,-3.32 0,-0.4 -0.24,-0.64 -0.6,-0.64 -0.24,0 -0.48,0.08 -0.8,0.28 -0.36,0.24 -0.48,0.28 -0.76,0.28 -0.88,0 -1.08,-0.56 -1.08,-2.88 l 0,-7.04 z m -6.28,3.32 0,2.24 c 0,3.08 -1.44,5.04 -3.68,5.04 -1.56,0 -2.56,-1.08 -2.56,-2.8 0,-2.12 1.24,-3.32 4.12,-4 l 2.12,-0.48 z"
         style="font-style:normal;font-variant:normal;font-weight:bold;font-stretch:normal;font-family:'Century Schoolbook L';-inkscape-font-specification:'Century Schoolbook L Medium';text-align:center;text-anchor:middle"
         id="path3479"
         inkscape:connector-curvature="0" />
      <path
         d="m 275.23871,195.44855 -1.72,0 -1.48,0.88 c -1.52,-0.88 -3.04,-1.28 -4.96,-1.28 -4.48,0 -7.72,2.72 -7.72,6.48 0,1.52 0.6,2.92 1.68,3.96 1.2,1.16 2.36,1.72 4.96,2.28 l 2.92,0.64 c 2,0.44 2.8,1.12 2.8,2.32 0,1.44 -1.32,2.36 -3.44,2.36 -3.08,0 -5.36,-1.72 -7.28,-5.52 l -1.8,0 0.2,6.92 1.68,0 1.56,-0.72 c 1.48,0.88 3.56,1.4 5.64,1.4 4.72,0 8.04,-2.8 8.04,-6.8 0,-1.68 -0.6,-3.08 -1.72,-4.08 -1.04,-0.92 -1.88,-1.28 -4.76,-2 l -3.6,-0.88 c -1.96,-0.52 -2.48,-0.92 -2.48,-1.96 0,-1.36 1.4,-2.32 3.36,-2.32 2.56,0 4.44,1.36 6.4,4.64 l 1.88,0 -0.16,-6.32 z"
         style="font-style:normal;font-variant:normal;font-weight:bold;font-stretch:normal;font-family:'Century Schoolbook L';-inkscape-font-specification:'Century Schoolbook L Medium';text-align:center;text-anchor:middle"
         id="path3481"
         inkscape:connector-curvature="0" />
      <path
         d="m 299.27871,205.44855 0,-0.64 c 0,-5.96 -3.72,-9.76 -9.56,-9.76 -3.2,0 -5.88,1.04 -7.88,3.08 -1.8,1.88 -2.88,4.52 -2.88,7.16 0,2.84 1.24,5.72 3.24,7.44 1.84,1.56 4.52,2.44 7.56,2.44 4.68,0 7.76,-2.08 9.52,-6.36 l -1.96,-0.8 c -1.6,3.12 -3.4,4.44 -6,4.44 -1.84,0 -3.44,-0.88 -4.44,-2.4 -0.68,-1.08 -0.96,-2.32 -1,-4.6 l 13.4,0 z m -13.36,-2.2 c 0,-3.8 1.52,-6.12 3.92,-6.12 2.04,0 3.16,1.68 3.16,4.84 0,0.96 -0.28,1.28 -1.08,1.28 l -6,0 z"
         style="font-style:normal;font-variant:normal;font-weight:bold;font-stretch:normal;font-family:'Century Schoolbook L';-inkscape-font-specification:'Century Schoolbook L Medium';text-align:center;text-anchor:middle"
         id="path3483"
         inkscape:connector-curvature="0" />
      <path
         d="m 324.45184,195.04855 c -6.36,0 -11.08,4.32 -11.08,10.08 0,5.8 4.6,10.04 10.92,10.04 6.32,0 11,-4.24 11,-9.96 0,-5.68 -4.76,-10.16 -10.84,-10.16 z m -0.08,2.08 c 1.4,0 2.68,0.96 3.2,2.36 0.48,1.32 0.8,3.6 0.8,5.68 0,5.08 -1.48,7.92 -4.04,7.92 -2.68,0 -4.04,-2.68 -4.04,-7.96 0,-5.28 1.4,-8 4.08,-8 z"
         style="font-style:normal;font-variant:normal;font-weight:bold;font-stretch:normal;font-family:'Century Schoolbook L';-inkscape-font-specification:'Century Schoolbook L Medium';text-align:center;text-anchor:middle"
         id="path3485"
         inkscape:connector-curvature="0" />
      <path
         d="m 346.54496,195.64855 -9.16,0.28 0,2.04 0.6,0 c 2.44,0 2.56,0.16 2.56,3.88 l 0,6.96 0,1.84 c 0,1.64 -0.44,1.88 -3,1.88 l -0.16,0 0,2.04 12.2,0 0,-2.04 c -2.36,0 -2.76,-0.28 -2.76,-1.84 l 0,-1.88 0,-3.88 c 0,-1.8 0.16,-2.84 0.64,-3.8 0.64,-1.44 2.04,-2.36 3.48,-2.36 1.88,0 2.92,1.36 2.92,3.92 l 0,6.12 0,1.88 c 0,1.56 -0.4,1.84 -2.76,1.84 l 0,2.04 12.2,0 0,-2.04 -0.16,0 c -2.56,0 -3,-0.24 -3,-1.88 l 0,-1.84 0,-6.68 c 0,-2.48 -0.44,-4 -1.52,-5.16 -1.08,-1.24 -2.88,-1.92 -4.96,-1.92 -3.16,0 -5.16,1.16 -7.12,4.12 l 0,-3.52 z"
         style="font-style:normal;font-variant:normal;font-weight:bold;font-stretch:normal;font-family:'Century Schoolbook L';-inkscape-font-specification:'Century Schoolbook L Medium';text-align:center;text-anchor:middle"
         id="path3487"
         inkscape:connector-curvature="0" />
      <path
         d="m 374.24684,185.08855 -9.6,0.6 0,2.04 0.76,0 c 2.44,0 2.56,0.16 2.56,3.72 l 0,17.36 0,1.88 c 0,1.6 -0.44,1.84 -3.04,1.84 l -0.16,0 0,2.04 12.48,0 0,-2.04 -0.28,0 c -0.76,0 -1.84,-0.12 -2.12,-0.28 -0.48,-0.24 -0.6,-0.56 -0.6,-1.56 l 0,-1.88 0,-23.72 z"
         style="font-style:normal;font-variant:normal;font-weight:bold;font-stretch:normal;font-family:'Century Schoolbook L';-inkscape-font-specification:'Century Schoolbook L Medium';text-align:center;text-anchor:middle"
         id="path3489"
         inkscape:connector-curvature="0" />
      <path
         d="m 392.42934,208.24855 -4.24,-8.64 c -0.2,-0.4 -0.32,-0.8 -0.32,-1.08 0,-0.56 0.44,-0.84 1.4,-0.84 l 0.72,0 0,-2.04 -11.36,0 0,2.04 c 1.48,0.04 1.8,0.28 2.44,1.6 l 8.2,15.92 -0.92,1.72 c -1.04,2.04 -2.28,3.16 -3.4,3.16 -0.2,0 -0.36,-0.12 -0.36,-0.24 0,-0.04 0,-0.08 0.04,-0.12 0.24,-0.4 0.32,-0.8 0.32,-1.36 0,-1.6 -1.24,-2.72 -3,-2.72 -1.96,0 -3.48,1.52 -3.48,3.48 0,2.2 1.96,3.68 4.96,3.68 3.36,0 5.76,-2.04 7.92,-6.76 l 7,-15.08 c 1.16,-2.44 2,-3.2 3.64,-3.28 l 0,-2.04 -9,0 0,2.04 0.44,0 c 1.72,0 2.68,0.56 2.68,1.6 0,0.44 -0.16,1.16 -0.36,1.64 l -3.32,7.32 z"
         style="font-style:normal;font-variant:normal;font-weight:bold;font-stretch:normal;font-family:'Century Schoolbook L';-inkscape-font-specification:'Century Schoolbook L Medium';text-align:center;text-anchor:middle"
         id="path3491"
         inkscape:connector-curvature="0" />
      <path
         d="m 435.60684,205.44855 0,-0.64 c 0,-5.96 -3.72,-9.76 -9.56,-9.76 -3.2,0 -5.88,1.04 -7.88,3.08 -1.8,1.88 -2.88,4.52 -2.88,7.16 0,2.84 1.24,5.72 3.24,7.44 1.84,1.56 4.52,2.44 7.56,2.44 4.68,0 7.76,-2.08 9.52,-6.36 l -1.96,-0.8 c -1.6,3.12 -3.4,4.44 -6,4.44 -1.84,0 -3.44,-0.88 -4.44,-2.4 -0.68,-1.08 -0.96,-2.32 -1,-4.6 l 13.4,0 z m -13.36,-2.2 c 0,-3.8 1.52,-6.12 3.92,-6.12 2.04,0 3.16,1.68 3.16,4.84 0,0.96 -0.28,1.28 -1.08,1.28 l -6,0 z"
         style="font-style:normal;font-variant:normal;font-weight:bold;font-stretch:normal;font-family:'Century Schoolbook L';-inkscape-font-specification:'Century Schoolbook L Medium';text-align:center;text-anchor:middle"
         id="path3493"
         inkscape:connector-curvature="0" />
      <path
         d="m 457.61559,201.84855 c 0,-2.6 -0.48,-3.84 -1.88,-4.96 -1.48,-1.2 -4,-1.84 -7.12,-1.84 -5.52,0 -9.12,2.04 -9.12,5.16 0,1.72 1.4,3 3.24,3 1.84,0 3.28,-1.12 3.28,-2.6 0,-0.48 -0.2,-1.04 -0.56,-1.52 -0.36,-0.44 -0.36,-0.48 -0.36,-0.68 0,-0.68 1.36,-1.28 2.96,-1.28 2.4,0 3.28,1.04 3.28,3.8 l 0,2.08 c -0.44,0.12 -0.96,0.24 -1.32,0.28 -4.04,0.88 -5.44,1.24 -7.32,2 -2.92,1.2 -4.28,2.8 -4.28,5.2 0,2.96 2.28,4.68 6.16,4.68 3.44,0 5.52,-0.76 7.64,-2.84 0.68,1.8 2.2,2.84 4.24,2.84 2.28,0 4.4,-1.6 4.4,-3.32 0,-0.4 -0.24,-0.64 -0.6,-0.64 -0.24,0 -0.48,0.08 -0.8,0.28 -0.36,0.24 -0.48,0.28 -0.76,0.28 -0.88,0 -1.08,-0.56 -1.08,-2.88 l 0,-7.04 z m -6.28,3.32 0,2.24 c 0,3.08 -1.44,5.04 -3.68,5.04 -1.56,0 -2.56,-1.08 -2.56,-2.8 0,-2.12 1.24,-3.32 4.12,-4 l 2.12,-0.48 z"
         style="font-style:normal;font-variant:normal;font-weight:bold;font-stretch:normal;font-family:'Century Schoolbook L';-inkscape-font-specification:'Century Schoolbook L Medium';text-align:center;text-anchor:middle"
         id="path3495"
         inkscape:connector-curvature="0" />
      <path
         d="m 476.66871,195.64855 -5.2,0 0,-7.92 -2.52,0 c -0.64,5.12 -2.8,7.8 -6.6,8.24 l 0,2.08 2.84,0 0,9.56 c 0,3.28 0.16,4.24 0.84,5.36 0.84,1.4 2.56,2.2 4.84,2.2 2.28,0 4.08,-0.76 5.16,-2.2 1,-1.28 1.6,-3.2 1.6,-4.92 0,-0.2 0,-0.52 -0.04,-0.92 l -2.12,0 c 0.04,2.96 -0.88,4.64 -2.52,4.64 -1.16,0 -1.48,-0.72 -1.48,-3.44 l 0,-10.28 5.2,0 0,-2.4 z"
         style="font-style:normal;font-variant:normal;font-weight:bold;font-stretch:normal;font-family:'Century Schoolbook L';-inkscape-font-specification:'Century Schoolbook L Medium';text-align:center;text-anchor:middle"
         id="path3497"
         inkscape:connector-curvature="0" />
      <path
         d="m 504.30434,208.24855 -4.24,-8.64 c -0.2,-0.4 -0.32,-0.8 -0.32,-1.08 0,-0.56 0.44,-0.84 1.4,-0.84 l 0.72,0 0,-2.04 -11.36,0 0,2.04 c 1.48,0.04 1.8,0.28 2.44,1.6 l 8.2,15.92 -0.92,1.72 c -1.04,2.04 -2.28,3.16 -3.4,3.16 -0.2,0 -0.36,-0.12 -0.36,-0.24 0,-0.04 0,-0.08 0.04,-0.12 0.24,-0.4 0.32,-0.8 0.32,-1.36 0,-1.6 -1.24,-2.72 -3,-2.72 -1.96,0 -3.48,1.52 -3.48,3.48 0,2.2 1.96,3.68 4.96,3.68 3.36,0 5.76,-2.04 7.92,-6.76 l 7,-15.08 c 1.16,-2.44 2,-3.2 3.64,-3.28 l 0,-2.04 -9,0 0,2.04 0.44,0 c 1.72,0 2.68,0.56 2.68,1.6 0,0.44 -0.16,1.16 -0.36,1.64 l -3.32,7.32 z"
         style="font-style:normal;font-variant:normal;font-weight:bold;font-stretch:normal;font-family:'Century Schoolbook L';-inkscape-font-specification:'Century Schoolbook L Medium';text-align:center;text-anchor:middle"
         id="path3499"
         inkscape:connector-curvature="0" />
      <path
         d="m 526.71746,195.04855 c -6.36,0 -11.08,4.32 -11.08,10.08 0,5.8 4.6,10.04 10.92,10.04 6.32,0 11,-4.24 11,-9.96 0,-5.68 -4.76,-10.16 -10.84,-10.16 z m -0.08,2.08 c 1.4,0 2.68,0.96 3.2,2.36 0.48,1.32 0.8,3.6 0.8,5.68 0,5.08 -1.48,7.92 -4.04,7.92 -2.68,0 -4.04,-2.68 -4.04,-7.96 0,-5.28 1.4,-8 4.08,-8 z"
         style="font-style:normal;font-variant:normal;font-weight:bold;font-stretch:normal;font-family:'Century Schoolbook L';-inkscape-font-specification:'Century Schoolbook L Medium';text-align:center;text-anchor:middle"
         id="path3501"
         inkscape:connector-curvature="0" />
      <path
         d="m 562.21059,195.64855 -9.48,0.28 0,2.04 0.64,0 c 2.44,0 2.56,0.16 2.56,3.88 l 0,3.2 c 0,2 -0.16,3.12 -0.68,4.12 -0.64,1.36 -2.04,2.28 -3.56,2.28 -2,0 -2.84,-1.24 -2.84,-4.28 l 0,-11.52 -9.48,0.28 0,2.04 0.64,0 c 2.48,0 2.52,0.08 2.56,3.88 l 0,5.08 c 0,2.96 0.08,3.68 0.64,4.8 1.08,2.2 3.2,3.44 5.92,3.44 2.84,0 4.76,-1.04 7.08,-3.88 l 0,3.28 9.32,-0.44 0,-2.16 -1.12,0 c -1.88,0 -2.2,-0.28 -2.2,-1.72 l 0,-0.92 0,-13.68 z"
         style="font-style:normal;font-variant:normal;font-weight:bold;font-stretch:normal;font-family:'Century Schoolbook L';-inkscape-font-specification:'Century Schoolbook L Medium';text-align:center;text-anchor:middle"
         id="path3503"
         inkscape:connector-curvature="0" />
      <path
         d="m 575.91246,195.64855 -8.92,0.28 0,2.04 0.6,0 c 2.44,0 2.56,0.16 2.56,3.88 l 0,6.96 0,1.84 c 0,1.64 -0.44,1.88 -3,1.88 l -0.16,0 0,2.04 13.36,0 0,-2.04 -0.88,0 c -2.56,0 -3,-0.24 -3,-1.88 l 0,-1.84 0,-0.8 c 0,-2.8 0.68,-5.96 1.68,-7.72 0.84,-1.48 1.68,-2.2 3.04,-2.6 -0.52,0.72 -0.68,1.16 -0.68,1.88 0,1.72 1.28,2.96 3,2.96 1.96,0 3.44,-1.48 3.44,-3.44 0,-2.32 -1.84,-4.04 -4.4,-4.04 -3.08,0 -5.2,1.76 -6.64,5.44 l 0,-4.84 z"
         style="font-style:normal;font-variant:normal;font-weight:bold;font-stretch:normal;font-family:'Century Schoolbook L';-inkscape-font-specification:'Century Schoolbook L Medium';text-align:center;text-anchor:middle"
         id="path3505"
         inkscape:connector-curvature="0" />
      <path
         d="m 139.87371,249.11877 -5,0 0,-2.28 c 0,-2.68 0.08,-3.56 0.48,-4.44 0.4,-0.92 1.32,-1.6 2.12,-1.6 0.36,0 0.64,0.16 0.64,0.32 0,0.12 -0.04,0.2 -0.2,0.36 -0.6,0.48 -1,1.36 -1,2.12 0,1.56 1.32,2.76 3,2.76 1.84,0 3.2,-1.4 3.2,-3.28 0,-2.48 -2.48,-4.36 -5.8,-4.36 -5.24,0 -8.72,3.96 -8.72,9.88 l 0,0.52 -3.48,0 0,2.4 3.48,0 0,10.76 0,1.88 c 0,1.6 -0.44,1.88 -3.04,1.88 l -0.16,0 0,2 13.2,0 0,-2 -0.72,0 c -2.56,0 -3,-0.28 -3,-1.88 l 0,-1.88 0,-10.76 5,0 0,-2.4 z"
         style="font-style:normal;font-variant:normal;font-weight:bold;font-stretch:normal;font-family:'Century Schoolbook L';-inkscape-font-specification:'Century Schoolbook L Medium'"
         id="path3507"
         inkscape:connector-curvature="0" />
      <path
         d="m 152.42059,248.51877 c -6.36,0 -11.08,4.32 -11.08,10.08 0,5.8 4.6,10.04 10.92,10.04 6.32,0 11,-4.24 11,-9.96 0,-5.68 -4.76,-10.16 -10.84,-10.16 z"
         style="font-style:normal;font-variant:normal;font-weight:bold;font-stretch:normal;font-family:'Century Schoolbook L';-inkscape-font-specification:'Century Schoolbook L Medium'"
         id="path3509"
         inkscape:connector-curvature="0"
         sodipodi:nodetypes="sssss" />
      <path
         d="m 176.87371,248.51877 c -6.36,0 -11.08,4.32 -11.08,10.08 0,5.8 4.6,10.04 10.92,10.04 6.32,0 11,-4.24 11,-9.96 0,-5.68 -4.76,-10.16 -10.84,-10.16 z"
         style="font-style:normal;font-variant:normal;font-weight:bold;font-stretch:normal;font-family:'Century Schoolbook L';-inkscape-font-specification:'Century Schoolbook L Medium'"
         id="path3511"
         inkscape:connector-curvature="0"
         sodipodi:nodetypes="sssss" />
      <path
         d="m 211.72684,238.55877 -10.12,0.6 0,2.04 1.28,0 c 2.44,0 2.56,0.16 2.56,3.72 l 0,6.28 c -1.52,-1.84 -3.32,-2.68 -5.84,-2.68 -5.12,0 -9.12,4.52 -9.12,10.36 0,5.8 3.56,9.76 8.76,9.76 2.88,0 4.92,-1.08 6.56,-3.48 l 0,2.88 9.36,-0.44 0,-2.16 -1.08,0 c -1.44,0 -1.56,0 -1.88,-0.28 -0.36,-0.32 -0.48,-0.8 -0.48,-2 z"
         style="font-style:normal;font-variant:normal;font-weight:bold;font-stretch:normal;font-family:'Century Schoolbook L';-inkscape-font-specification:'Century Schoolbook L Medium'"
         id="path3513"
         inkscape:connector-curvature="0"
         sodipodi:nodetypes="cccsscsssccccscsc" />
      <path
         d="m 237.72996,249.11877 -9.4,0.28 0,2.04 0.56,0 c 2.44,0 2.56,0.2 2.56,3.76 l 0,7.08 0,1.84 c 0,1.6 -0.44,1.88 -2.96,1.88 l -0.16,0 0,2.04 12.52,0 0,-2.04 -0.24,0 c -2.44,0 -2.88,-0.28 -2.88,-1.84 l 0,-1.88 0,-13.16 z m -3.24,-10.56 c -1.96,0 -3.56,1.6 -3.56,3.52 0,1.92 1.6,3.56 3.48,3.56 2,0 3.6,-1.56 3.6,-3.56 0,-1.92 -1.6,-3.52 -3.52,-3.52 z"
         style="font-style:normal;font-variant:normal;font-weight:bold;font-stretch:normal;font-family:'Century Schoolbook L';-inkscape-font-specification:'Century Schoolbook L Medium'"
         id="path3515"
         inkscape:connector-curvature="0" />
      <path
         d="m 251.93559,249.11877 -9.16,0.28 0,2.04 0.6,0 c 2.44,0 2.56,0.16 2.56,3.88 l 0,6.96 0,1.84 c 0,1.64 -0.44,1.88 -3,1.88 l -0.16,0 0,2.04 12.2,0 0,-2.04 c -2.36,0 -2.76,-0.28 -2.76,-1.84 l 0,-1.88 0,-3.88 c 0,-1.8 0.16,-2.84 0.64,-3.8 0.64,-1.44 2.04,-2.36 3.48,-2.36 1.88,0 2.92,1.36 2.92,3.92 l 0,6.12 0,1.88 c 0,1.56 -0.4,1.84 -2.76,1.84 l 0,2.04 12.2,0 0,-2.04 -0.16,0 c -2.56,0 -3,-0.24 -3,-1.88 l 0,-1.84 0,-6.68 c 0,-2.48 -0.44,-4 -1.52,-5.16 -1.08,-1.24 -2.88,-1.92 -4.96,-1.92 -3.16,0 -5.16,1.16 -7.12,4.12 l 0,-3.52 z"
         style="font-style:normal;font-variant:normal;font-weight:bold;font-stretch:normal;font-family:'Century Schoolbook L';-inkscape-font-specification:'Century Schoolbook L Medium'"
         id="path3517"
         inkscape:connector-curvature="0" />
      <path
         d="m 296.12184,249.11877 -5.2,0 0,-7.92 -2.52,0 c -0.64,5.12 -2.8,7.8 -6.6,8.24 l 0,2.08 2.84,0 0,9.56 c 0,3.28 0.16,4.24 0.84,5.36 0.84,1.4 2.56,2.2 4.84,2.2 2.28,0 4.08,-0.76 5.16,-2.2 1,-1.28 1.6,-3.2 1.6,-4.92 0,-0.2 0,-0.52 -0.04,-0.92 l -2.12,0 c 0.04,2.96 -0.88,4.64 -2.52,4.64 -1.16,0 -1.48,-0.72 -1.48,-3.44 l 0,-10.28 5.2,0 0,-2.4 z"
         style="font-style:normal;font-variant:normal;font-weight:bold;font-stretch:normal;font-family:'Century Schoolbook L';-inkscape-font-specification:'Century Schoolbook L Medium'"
         id="path3519"
         inkscape:connector-curvature="0" />
      <path
         d="m 308.15309,238.55877 -9.6,0.6 0,2.04 0.76,0 c 2.48,0 2.52,0.08 2.56,3.88 l 0,17.2 0,1.88 c 0,1.6 -0.44,1.84 -3.04,1.84 l -0.16,0 0,2.04 12.2,0 0,-2.04 c -2.32,0 -2.72,-0.24 -2.72,-1.88 l 0,-1.84 0,-3.88 c 0,-1.8 0.16,-2.84 0.6,-3.8 0.64,-1.44 2.04,-2.36 3.52,-2.36 1.84,0 2.84,1.36 2.84,3.92 l 0,6.12 0,1.88 c 0,1.56 -0.4,1.84 -2.76,1.84 l 0,2.04 12.2,0 0,-2.04 -0.16,0 c -2.56,0 -3,-0.24 -3,-1.88 l 0,-1.84 0,-6.68 c 0,-2.48 -0.44,-4 -1.52,-5.16 -1.08,-1.24 -2.84,-1.92 -4.92,-1.92 -3.04,0 -5.12,1.12 -6.8,3.68 l 0,-13.64 z"
         style="font-style:normal;font-variant:normal;font-weight:bold;font-stretch:normal;font-family:'Century Schoolbook L';-inkscape-font-specification:'Century Schoolbook L Medium'"
         id="path3521"
         inkscape:connector-curvature="0" />
      <path
         d="m 346.93496,258.91877 0,-0.64 c 0,-5.96 -3.72,-9.76 -9.56,-9.76 -3.2,0 -5.88,1.04 -7.88,3.08 -1.8,1.88 -2.88,4.52 -2.88,7.16 0,2.84 1.24,5.72 3.24,7.44 1.84,1.56 4.52,2.44 7.56,2.44 4.68,0 7.76,-2.08 9.52,-6.36 l -1.96,-0.8 c -1.6,3.12 -3.4,4.44 -6,4.44 -1.84,0 -3.44,-0.88 -4.44,-2.4 -0.68,-1.08 -0.96,-2.32 -1,-4.6 l 13.4,0 z m -13.36,-2.2 c 0,-3.8 1.52,-6.12 3.92,-6.12 2.04,0 3.16,1.68 3.16,4.84 0,0.96 -0.28,1.28 -1.08,1.28 l -6,0 z"
         style="font-style:normal;font-variant:normal;font-weight:bold;font-stretch:normal;font-family:'Century Schoolbook L';-inkscape-font-specification:'Century Schoolbook L Medium'"
         id="path3523"
         inkscape:connector-curvature="0" />
      <path
         d="m 369.86809,238.55877 -9.6,0.6 0,2.04 0.76,0 c 2.44,0 2.56,0.16 2.56,3.72 l 0,17.36 0,1.88 c 0,1.6 -0.44,1.84 -3.04,1.84 l -0.16,0 0,2.04 12.2,0 0,-2.04 c -2.32,0 -2.72,-0.28 -2.72,-1.88 l 0,-1.84 0,-1.12 1.84,-1.64 3.68,4.44 c 0.32,0.4 0.52,0.88 0.52,1.24 0,0.52 -0.52,0.8 -1.56,0.8 l -0.4,0 0,2.04 12.24,0 0,-2.04 c -1.4,0 -1.76,-0.28 -3.52,-2.56 l -6.28,-7.84 3.08,-2.56 c 1.64,-1.4 2.8,-1.88 4.32,-1.88 l 0.92,0 0,-2.04 -11.76,0 0,2.04 0.48,0 c 1.52,0 2.4,0.4 2.4,1.12 0,0.48 -0.28,0.96 -1,1.6 l -4.96,4.32 0,-19.64 z"
         style="font-style:normal;font-variant:normal;font-weight:bold;font-stretch:normal;font-family:'Century Schoolbook L';-inkscape-font-specification:'Century Schoolbook L Medium'"
         id="path3525"
         inkscape:connector-curvature="0" />
      <path
         d="m 397.02684,249.11877 -9.4,0.28 0,2.04 0.56,0 c 2.44,0 2.56,0.2 2.56,3.76 l 0,7.08 0,1.84 c 0,1.6 -0.44,1.88 -2.96,1.88 l -0.16,0 0,2.04 12.52,0 0,-2.04 -0.24,0 c -2.44,0 -2.88,-0.28 -2.88,-1.84 l 0,-1.88 0,-13.16 z m -3.24,-10.56 c -1.96,0 -3.56,1.6 -3.56,3.52 0,1.92 1.6,3.56 3.48,3.56 2,0 3.6,-1.56 3.6,-3.56 0,-1.92 -1.6,-3.52 -3.52,-3.52 z"
         style="font-style:normal;font-variant:normal;font-weight:bold;font-stretch:normal;font-family:'Century Schoolbook L';-inkscape-font-specification:'Century Schoolbook L Medium'"
         id="path3527"
         inkscape:connector-curvature="0" />
      <path
         d="m 416.51246,249.11877 -5.2,0 0,-7.92 -2.52,0 c -0.64,5.12 -2.8,7.8 -6.6,8.24 l 0,2.08 2.84,0 0,9.56 c 0,3.28 0.16,4.24 0.84,5.36 0.84,1.4 2.56,2.2 4.84,2.2 2.28,0 4.08,-0.76 5.16,-2.2 1,-1.28 1.6,-3.2 1.6,-4.92 0,-0.2 0,-0.52 -0.04,-0.92 l -2.12,0 c 0.04,2.96 -0.88,4.64 -2.52,4.64 -1.16,0 -1.48,-0.72 -1.48,-3.44 l 0,-10.28 5.2,0 0,-2.4 z"
         style="font-style:normal;font-variant:normal;font-weight:bold;font-stretch:normal;font-family:'Century Schoolbook L';-inkscape-font-specification:'Century Schoolbook L Medium'"
         id="path3529"
         inkscape:connector-curvature="0" />
      <path
         d="m 437.30371,260.95877 c -0.56,1.48 -0.92,2.12 -1.52,2.92 -0.96,1.28 -2.56,2.04 -4.2,2.04 -3.24,0 -5.12,-2.8 -5.12,-7.76 0,-4.76 1.76,-7.56 4.76,-7.56 1.16,0 2.12,0.48 2.12,1.12 0,0.12 -0.08,0.32 -0.44,0.76 -0.68,0.84 -0.84,1.2 -0.84,1.96 0,1.72 1.36,2.92 3.28,2.92 2.2,0 3.6,-1.36 3.6,-3.4 0,-3.28 -3.12,-5.44 -7.96,-5.44 -6.64,0 -11.44,4.32 -11.44,10.36 0,5.84 4.32,9.76 10.76,9.76 2.96,0 4.92,-0.8 6.68,-2.72 1.16,-1.2 1.8,-2.4 2.4,-4.28 l -2.08,-0.68 z"
         style="font-style:normal;font-variant:normal;font-weight:bold;font-stretch:normal;font-family:'Century Schoolbook L';-inkscape-font-specification:'Century Schoolbook L Medium'"
         id="path3531"
         inkscape:connector-curvature="0" />
      <path
         d="m 450.80934,238.55877 -9.6,0.6 0,2.04 0.76,0 c 2.48,0 2.52,0.08 2.56,3.88 l 0,17.2 0,1.88 c 0,1.6 -0.44,1.84 -3.04,1.84 l -0.16,0 0,2.04 12.2,0 0,-2.04 c -2.32,0 -2.72,-0.24 -2.72,-1.88 l 0,-1.84 0,-3.88 c 0,-1.8 0.16,-2.84 0.6,-3.8 0.64,-1.44 2.04,-2.36 3.52,-2.36 1.84,0 2.84,1.36 2.84,3.92 l 0,6.12 0,1.88 c 0,1.56 -0.4,1.84 -2.76,1.84 l 0,2.04 12.2,0 0,-2.04 -0.16,0 c -2.56,0 -3,-0.24 -3,-1.88 l 0,-1.84 0,-6.68 c 0,-2.48 -0.44,-4 -1.52,-5.16 -1.08,-1.24 -2.84,-1.92 -4.92,-1.92 -3.04,0 -5.12,1.12 -6.8,3.68 l 0,-13.64 z"
         style="font-style:normal;font-variant:normal;font-weight:bold;font-stretch:normal;font-family:'Century Schoolbook L';-inkscape-font-specification:'Century Schoolbook L Medium'"
         id="path3533"
         inkscape:connector-curvature="0" />
      <path
         d="m 489.59121,258.91877 0,-0.64 c 0,-5.96 -3.72,-9.76 -9.56,-9.76 -3.2,0 -5.88,1.04 -7.88,3.08 -1.8,1.88 -2.88,4.52 -2.88,7.16 0,2.84 1.24,5.72 3.24,7.44 1.84,1.56 4.52,2.44 7.56,2.44 4.68,0 7.76,-2.08 9.52,-6.36 l -1.96,-0.8 c -1.6,3.12 -3.4,4.44 -6,4.44 -1.84,0 -3.44,-0.88 -4.44,-2.4 -0.68,-1.08 -0.96,-2.32 -1,-4.6 l 13.4,0 z m -13.36,-2.2 c 0,-3.8 1.52,-6.12 3.92,-6.12 2.04,0 3.16,1.68 3.16,4.84 0,0.96 -0.28,1.28 -1.08,1.28 l -6,0 z"
         style="font-style:normal;font-variant:normal;font-weight:bold;font-stretch:normal;font-family:'Century Schoolbook L';-inkscape-font-specification:'Century Schoolbook L Medium'"
         id="path3535"
         inkscape:connector-curvature="0" />
      <path
         d="m 500.91996,249.11877 -9.16,0.28 0,2.04 0.6,0 c 2.44,0 2.56,0.16 2.56,3.88 l 0,6.96 0,1.84 c 0,1.64 -0.44,1.88 -3,1.88 l -0.16,0 0,2.04 12.2,0 0,-2.04 c -2.36,0 -2.76,-0.28 -2.76,-1.84 l 0,-1.88 0,-3.88 c 0,-1.8 0.16,-2.84 0.64,-3.8 0.64,-1.44 2.04,-2.36 3.48,-2.36 1.88,0 2.92,1.36 2.92,3.92 l 0,6.12 0,1.88 c 0,1.56 -0.4,1.84 -2.76,1.84 l 0,2.04 12.2,0 0,-2.04 -0.16,0 c -2.56,0 -3,-0.24 -3,-1.88 l 0,-1.84 0,-6.68 c 0,-2.48 -0.44,-4 -1.52,-5.16 -1.08,-1.24 -2.88,-1.92 -4.96,-1.92 -3.16,0 -5.16,1.16 -7.12,4.12 l 0,-3.52 z"
         style="font-style:normal;font-variant:normal;font-weight:bold;font-stretch:normal;font-family:'Century Schoolbook L';-inkscape-font-specification:'Century Schoolbook L Medium'"
         id="path3537"
         inkscape:connector-curvature="0" />
      <path
         d="m 551.89746,255.28486 0,10.39062 2.96875,0 0,2.36329 -9.88281,0 0,-2.63672 q -1.36719,1.64062 -3.04688,2.42187 -1.67968,0.78125 -3.82812,0.78125 -3.1836,0 -4.90235,-1.69922 -1.69921,-1.71875 -1.69921,-4.90234 0,-3.49609 2.4414,-5.23438 2.46094,-1.73828 7.40235,-1.73828 l 3.63281,0 0,-1.23047 q 0,-2.51953 -1.19141,-3.71093 -1.1914,-1.21094 -3.6914,-1.21094 -2.07032,0 -3.20313,0.85937 -1.11328,0.83985 -1.58203,2.77344 l -2.20703,0 0,-4.47265 q 1.85547,-0.66407 3.84765,-0.9961 1.99219,-0.33203 4.19922,-0.33203 5.56641,0 8.14453,2.07031 2.59766,2.07032 2.59766,6.50391 z m -6.91406,6.23047 0,-4.16016 -2.59766,0 q -1.93359,0 -2.96875,1.05469 -1.03515,1.05469 -1.03515,3.02734 0,1.97266 0.74218,2.94922 0.76172,0.97656 2.30469,0.97656 1.60156,0 2.57813,-1.05468 0.97656,-1.05469 0.97656,-2.79297 z"
         style="font-style:normal;font-variant:normal;font-weight:bold;font-stretch:normal;font-family:'Bitstream Vera Serif';-inkscape-font-specification:'Bitstream Vera Serif';text-align:center;text-anchor:middle"
         id="path3539"
         inkscape:connector-curvature="0" />
      <path
         d="m 577.28809,247.04267 0,6.19141 -2.20704,0 q -0.11718,-1.66016 -0.89843,-2.46094 -0.78125,-0.82031 -2.26563,-0.82031 -2.26562,0 -3.57422,1.99219 -1.30859,1.99218 -1.30859,5.52734 l 0,8.20312 3.76953,0 0,2.36329 -13.63281,0 0,-2.36329 2.94922,0 0,-16.03515 -3.16407,0 0,-2.36328 10.07813,0 0,3.6914 q 1.01562,-2.16797 2.67578,-3.20312 1.67969,-1.05469 4.10156,-1.05469 0.60547,0 1.46485,0.0977 0.8789,0.0781 2.01172,0.23437 z"
         style="font-style:normal;font-variant:normal;font-weight:bold;font-stretch:normal;font-family:'Bitstream Vera Serif';-inkscape-font-specification:'Bitstream Vera Serif';text-align:center;text-anchor:middle"
         id="path3541"
         inkscape:connector-curvature="0" />
      <path
         d="m 592.93262,256.32002 q 0,-4.10157 -0.76172,-5.74219 -0.76172,-1.66016 -2.59766,-1.66016 -1.77734,0 -2.55859,1.6211 -0.76172,1.62109 -0.76172,5.42968 l 0,0.35157 6.67969,0 z m 7.59765,2.32421 -14.27734,0 0,0.15625 q 0,4.02344 1.21094,5.82032 1.21093,1.77734 3.90625,1.77734 2.24609,0 3.63281,-1.19141 1.38672,-1.1914 1.77734,-3.45703 l 3.24219,0 q -0.83984,3.53516 -3.33984,5.19532 -2.5,1.66015 -6.99219,1.66015 -5.39063,0 -8.28125,-2.83203 -2.87109,-2.85156 -2.87109,-8.125 0,-5.15625 2.94921,-8.04687 2.94922,-2.89063 8.20313,-2.89063 5.15625,0 7.91016,3.04688 2.7539,3.02734 2.92968,8.88671 z"
         style="font-style:normal;font-variant:normal;font-weight:bold;font-stretch:normal;font-family:'Bitstream Vera Serif';-inkscape-font-specification:'Bitstream Vera Serif';text-align:center;text-anchor:middle"
         id="path3543"
         inkscape:connector-curvature="0" />
      <path
         d="m 624.39746,255.28486 0,10.39062 2.96875,0 0,2.36329 -9.88281,0 0,-2.63672 q -1.36719,1.64062 -3.04688,2.42187 -1.67968,0.78125 -3.82812,0.78125 -3.1836,0 -4.90235,-1.69922 -1.69921,-1.71875 -1.69921,-4.90234 0,-3.49609 2.4414,-5.23438 2.46094,-1.73828 7.40235,-1.73828 l 3.63281,0 0,-1.23047 q 0,-2.51953 -1.19141,-3.71093 -1.1914,-1.21094 -3.6914,-1.21094 -2.07032,0 -3.20313,0.85937 -1.11328,0.83985 -1.58203,2.77344 l -2.20703,0 0,-4.47265 q 1.85547,-0.66407 3.84765,-0.9961 1.99219,-0.33203 4.19922,-0.33203 5.56641,0 8.14453,2.07031 2.59766,2.07032 2.59766,6.50391 z m -6.91406,6.23047 0,-4.16016 -2.59766,0 q -1.93359,0 -2.96875,1.05469 -1.03515,1.05469 -1.03515,3.02734 0,1.97266 0.74218,2.94922 0.76172,0.97656 2.30469,0.97656 1.60156,0 2.57813,-1.05468 0.97656,-1.05469 0.97656,-2.79297 z"
         style="font-style:normal;font-variant:normal;font-weight:bold;font-stretch:normal;font-family:'Bitstream Vera Serif';-inkscape-font-specification:'Bitstream Vera Serif';text-align:center;text-anchor:middle"
         id="path3545"
         inkscape:connector-curvature="0" />
      <path
         d="m 230.94228,242.02263 6.77046,0 0,7.65263 -6.77046,0 z"
         id="rect3454"
         inkscape:connector-curvature="0" />
      <path
         style="fill:#000000"
         d="m 646.33373,463.97913 -605.191821,0 0,-51.12291 0,0 605.191821,0"
         id="path3549"
         transform="matrix(0.36889151,0,0,0.36889151,113.73973,96.839836)"
         inkscape:connector-curvature="0" />
      <path
         style="fill:#000000"
         d="m 647.33373,412.85622 722.36177,0 0,51.12291 -722.52844,0"
         id="rect3456"
         transform="matrix(0.36889151,0,0,0.36889151,113.73973,96.839836)"
         inkscape:connector-curvature="0"
         sodipodi:nodetypes="cccc" />
      <path
         d="m 390.25467,241.81831 7.00894,0 0,8.42303 -7.00894,0 z"
         id="rect3458"
         inkscape:connector-curvature="0" />
      <path
         d="M 805.15855 317.4278 L 157.99998 317.42781 L 157.99998 269.42779 L 157.99998 269.42779 L 805.15855 269.42779 "
         style="fill:#000000"
         id="path3554"
         transform="matrix(0.36889151,0,0,0.36889151,113.73973,96.839836)" />
      <path
         d="m 805.26402,269.42389 443.21128,-0.004 0,48.00002 -443.21353,-1e-5"
         style="fill:#000000"
         id="rect3460"
         transform="matrix(0.36889151,0,0,0.36889151,113.73973,96.839836)"
         inkscape:connector-curvature="0"
         sodipodi:nodetypes="cccc" />
    </g>
    <rect
       style="font-style:normal;font-variant:normal;font-weight:normal;font-stretch:normal;font-size:40px;line-height:125%;font-family:'Ubuntu Mono';-inkscape-font-specification:'Ubuntu Mono';letter-spacing:0px;word-spacing:0px;display:inline;fill:#000000;fill-opacity:1;stroke:none;stroke-width:1px;stroke-linecap:butt;stroke-linejoin:miter;stroke-opacity:1"
       id="rect3464"
       width="14.666667"
       height="107.33334"
       x="832.66663"
       y="619.36224" />
    <rect
       style="font-style:normal;font-variant:normal;font-weight:normal;font-stretch:normal;font-size:40px;line-height:125%;font-family:'Ubuntu Mono';-inkscape-font-specification:'Ubuntu Mono';letter-spacing:0px;word-spacing:0px;display:inline;fill:#000000;fill-opacity:1;stroke:none;stroke-width:1px;stroke-linecap:butt;stroke-linejoin:miter;stroke-opacity:1"
       id="rect3464-7"
       width="14.666667"
       height="107.33334"
       x="1236.6666"
       y="614.69556" />
    <rect
       style="font-style:normal;font-variant:normal;font-weight:normal;font-stretch:normal;font-size:40px;line-height:125%;font-family:'Ubuntu Mono';-inkscape-font-specification:'Ubuntu Mono';letter-spacing:0px;word-spacing:0px;display:inline;fill:#000000;fill-opacity:1;stroke:none;stroke-width:1px;stroke-linecap:butt;stroke-linejoin:miter;stroke-opacity:1"
       id="rect3464-5"
       width="14.666667"
       height="107.33334"
       x="1047.3334"
       y="618.69556" />
    <rect
       style="font-style:normal;font-variant:normal;font-weight:normal;font-stretch:normal;font-size:40px;line-height:125%;font-family:'Ubuntu Mono';-inkscape-font-specification:'Ubuntu Mono';letter-spacing:0px;word-spacing:0px;display:inline;fill:#000000;fill-opacity:1;stroke:none;stroke-width:1px;stroke-linecap:butt;stroke-linejoin:miter;stroke-opacity:1"
       id="rect3464-3"
       width="14.666667"
       height="107.33334"
       x="157.41991"
       y="621.64648" />
    <rect
       style="font-style:normal;font-variant:normal;font-weight:normal;font-stretch:normal;font-size:40px;line-height:125%;font-family:'Ubuntu Mono';-inkscape-font-specification:'Ubuntu Mono';letter-spacing:0px;word-spacing:0px;display:inline;fill:#000000;fill-opacity:1;stroke:none;stroke-width:1px;stroke-linecap:butt;stroke-linejoin:miter;stroke-opacity:1"
       id="rect3464-56"
       width="14.666667"
       height="107.33334"
       x="602.66406"
       y="619.2149" />
    <rect
       style="font-style:normal;font-variant:normal;font-weight:normal;font-stretch:normal;font-size:40px;line-height:125%;font-family:'Ubuntu Mono';-inkscape-font-specification:'Ubuntu Mono';letter-spacing:0px;word-spacing:0px;display:inline;fill:#000000;fill-opacity:1;stroke:none;stroke-width:1px;stroke-linecap:butt;stroke-linejoin:miter;stroke-opacity:1"
       id="rect3464-2"
       width="14.666667"
       height="107.33334"
       x="321.23557"
       y="618.27209" />
    <rect
       style="font-style:normal;font-variant:normal;font-weight:normal;font-stretch:normal;font-size:40px;line-height:125%;font-family:'Ubuntu Mono';-inkscape-font-specification:'Ubuntu Mono';letter-spacing:0px;word-spacing:0px;display:inline;fill:#000000;fill-opacity:1;stroke:none;stroke-width:1px;stroke-linecap:butt;stroke-linejoin:miter;stroke-opacity:1"
       id="rect3464-9"
       width="14.666667"
       height="107.33334"
       x="465.95676"
       y="617.80066" />
  </g>
  <g
     transform="translate(0,-308.26772)"
     style="display:none"
     id="g3373"
     inkscape:groupmode="layer"
     inkscape:label="font">
    <g
       transform="matrix(2.7108241,0,0,2.7108241,-308.32846,45.751959)"
       id="g3375"
       style="font-style:normal;font-variant:normal;font-weight:normal;font-stretch:normal;font-size:40px;line-height:125%;font-family:'Ubuntu Mono';-inkscape-font-specification:'Ubuntu Mono';letter-spacing:0px;word-spacing:0px;fill:#000000;fill-opacity:1;stroke:none;stroke-width:1px;stroke-linecap:butt;stroke-linejoin:miter;stroke-opacity:1">
      <path
         inkscape:connector-curvature="0"
         id="path3377"
         style="font-style:normal;font-variant:normal;font-weight:bold;font-stretch:normal;font-family:'Century Schoolbook L';-inkscape-font-specification:'Century Schoolbook L Medium';text-align:center;text-anchor:middle"
         d="m 178.12371,202.16855 4.48,0 c 8.36,0 12.6,-2.84 12.6,-8.44 0,-3 -1.48,-5.44 -4.04,-6.64 -2.16,-1 -4.52,-1.4 -8.52,-1.4 l -15.88,0 0,2.2 0.6,0 c 2.08,0 2.92,0.16 3.28,0.56 0.28,0.36 0.28,0.48 0.28,3.04 l 0,17.32 c 0,2.56 0,2.68 -0.28,3.04 -0.36,0.4 -1.2,0.56 -3.28,0.56 l -0.6,0 0,2.16 15.84,0 0,-2.16 -0.88,0 c -2.12,0 -2.96,-0.16 -3.32,-0.56 -0.28,-0.36 -0.28,-0.48 -0.28,-3.04 l 0,-6.64 z m 0,-2.2 0,-9.68 c 0,-1.96 0.4,-2.4 2.2,-2.4 l 1.6,0 c 3.8,0 5.56,1.8 5.56,5.8 0,4.6 -1.88,6.28 -7.04,6.28 l -2.32,0 z" />
      <path
         inkscape:connector-curvature="0"
         id="path3379"
         style="font-style:normal;font-variant:normal;font-weight:bold;font-stretch:normal;font-family:'Century Schoolbook L';-inkscape-font-specification:'Century Schoolbook L Medium';text-align:center;text-anchor:middle"
         d="m 206.43434,185.08855 -9.6,0.6 0,2.04 0.76,0 c 2.44,0 2.56,0.16 2.56,3.72 l 0,17.36 0,1.88 c 0,1.6 -0.44,1.84 -3.04,1.84 l -0.16,0 0,2.04 12.48,0 0,-2.04 -0.28,0 c -0.76,0 -1.84,-0.12 -2.12,-0.28 -0.48,-0.24 -0.6,-0.56 -0.6,-1.56 l 0,-1.88 0,-23.72 z" />
      <path
         inkscape:connector-curvature="0"
         id="path3381"
         style="font-style:normal;font-variant:normal;font-weight:bold;font-stretch:normal;font-family:'Century Schoolbook L';-inkscape-font-specification:'Century Schoolbook L Medium';text-align:center;text-anchor:middle"
         d="m 231.85684,205.44855 0,-0.64 c 0,-5.96 -3.72,-9.76 -9.56,-9.76 -3.2,0 -5.88,1.04 -7.88,3.08 -1.8,1.88 -2.88,4.52 -2.88,7.16 0,2.84 1.24,5.72 3.24,7.44 1.84,1.56 4.52,2.44 7.56,2.44 4.68,0 7.76,-2.08 9.52,-6.36 l -1.96,-0.8 c -1.6,3.12 -3.4,4.44 -6,4.44 -1.84,0 -3.44,-0.88 -4.44,-2.4 -0.68,-1.08 -0.96,-2.32 -1,-4.6 l 13.4,0 z m -13.36,-2.2 c 0,-3.8 1.52,-6.12 3.92,-6.12 2.04,0 3.16,1.68 3.16,4.84 0,0.96 -0.28,1.28 -1.08,1.28 l -6,0 z" />
      <path
         inkscape:connector-curvature="0"
         id="path3383"
         style="font-style:normal;font-variant:normal;font-weight:bold;font-stretch:normal;font-family:'Century Schoolbook L';-inkscape-font-specification:'Century Schoolbook L Medium';text-align:center;text-anchor:middle"
         d="m 253.86559,201.84855 c 0,-2.6 -0.48,-3.84 -1.88,-4.96 -1.48,-1.2 -4,-1.84 -7.12,-1.84 -5.52,0 -9.12,2.04 -9.12,5.16 0,1.72 1.4,3 3.24,3 1.84,0 3.28,-1.12 3.28,-2.6 0,-0.48 -0.2,-1.04 -0.56,-1.52 -0.36,-0.44 -0.36,-0.48 -0.36,-0.68 0,-0.68 1.36,-1.28 2.96,-1.28 2.4,0 3.28,1.04 3.28,3.8 l 0,2.08 c -0.44,0.12 -0.96,0.24 -1.32,0.28 -4.04,0.88 -5.44,1.24 -7.32,2 -2.92,1.2 -4.28,2.8 -4.28,5.2 0,2.96 2.28,4.68 6.16,4.68 3.44,0 5.52,-0.76 7.64,-2.84 0.68,1.8 2.2,2.84 4.24,2.84 2.28,0 4.4,-1.6 4.4,-3.32 0,-0.4 -0.24,-0.64 -0.6,-0.64 -0.24,0 -0.48,0.08 -0.8,0.28 -0.36,0.24 -0.48,0.28 -0.76,0.28 -0.88,0 -1.08,-0.56 -1.08,-2.88 l 0,-7.04 z m -6.28,3.32 0,2.24 c 0,3.08 -1.44,5.04 -3.68,5.04 -1.56,0 -2.56,-1.08 -2.56,-2.8 0,-2.12 1.24,-3.32 4.12,-4 l 2.12,-0.48 z" />
      <path
         inkscape:connector-curvature="0"
         id="path3385"
         style="font-style:normal;font-variant:normal;font-weight:bold;font-stretch:normal;font-family:'Century Schoolbook L';-inkscape-font-specification:'Century Schoolbook L Medium';text-align:center;text-anchor:middle"
         d="m 275.23871,195.44855 -1.72,0 -1.48,0.88 c -1.52,-0.88 -3.04,-1.28 -4.96,-1.28 -4.48,0 -7.72,2.72 -7.72,6.48 0,1.52 0.6,2.92 1.68,3.96 1.2,1.16 2.36,1.72 4.96,2.28 l 2.92,0.64 c 2,0.44 2.8,1.12 2.8,2.32 0,1.44 -1.32,2.36 -3.44,2.36 -3.08,0 -5.36,-1.72 -7.28,-5.52 l -1.8,0 0.2,6.92 1.68,0 1.56,-0.72 c 1.48,0.88 3.56,1.4 5.64,1.4 4.72,0 8.04,-2.8 8.04,-6.8 0,-1.68 -0.6,-3.08 -1.72,-4.08 -1.04,-0.92 -1.88,-1.28 -4.76,-2 l -3.6,-0.88 c -1.96,-0.52 -2.48,-0.92 -2.48,-1.96 0,-1.36 1.4,-2.32 3.36,-2.32 2.56,0 4.44,1.36 6.4,4.64 l 1.88,0 -0.16,-6.32 z" />
      <path
         inkscape:connector-curvature="0"
         id="path3387"
         style="font-style:normal;font-variant:normal;font-weight:bold;font-stretch:normal;font-family:'Century Schoolbook L';-inkscape-font-specification:'Century Schoolbook L Medium';text-align:center;text-anchor:middle"
         d="m 299.27871,205.44855 0,-0.64 c 0,-5.96 -3.72,-9.76 -9.56,-9.76 -3.2,0 -5.88,1.04 -7.88,3.08 -1.8,1.88 -2.88,4.52 -2.88,7.16 0,2.84 1.24,5.72 3.24,7.44 1.84,1.56 4.52,2.44 7.56,2.44 4.68,0 7.76,-2.08 9.52,-6.36 l -1.96,-0.8 c -1.6,3.12 -3.4,4.44 -6,4.44 -1.84,0 -3.44,-0.88 -4.44,-2.4 -0.68,-1.08 -0.96,-2.32 -1,-4.6 l 13.4,0 z m -13.36,-2.2 c 0,-3.8 1.52,-6.12 3.92,-6.12 2.04,0 3.16,1.68 3.16,4.84 0,0.96 -0.28,1.28 -1.08,1.28 l -6,0 z" />
      <path
         inkscape:connector-curvature="0"
         id="path3389"
         style="font-style:normal;font-variant:normal;font-weight:bold;font-stretch:normal;font-family:'Century Schoolbook L';-inkscape-font-specification:'Century Schoolbook L Medium';text-align:center;text-anchor:middle"
         d="m 324.45184,195.04855 c -6.36,0 -11.08,4.32 -11.08,10.08 0,5.8 4.6,10.04 10.92,10.04 6.32,0 11,-4.24 11,-9.96 0,-5.68 -4.76,-10.16 -10.84,-10.16 z m -0.08,2.08 c 1.4,0 2.68,0.96 3.2,2.36 0.48,1.32 0.8,3.6 0.8,5.68 0,5.08 -1.48,7.92 -4.04,7.92 -2.68,0 -4.04,-2.68 -4.04,-7.96 0,-5.28 1.4,-8 4.08,-8 z" />
      <path
         inkscape:connector-curvature="0"
         id="path3391"
         style="font-style:normal;font-variant:normal;font-weight:bold;font-stretch:normal;font-family:'Century Schoolbook L';-inkscape-font-specification:'Century Schoolbook L Medium';text-align:center;text-anchor:middle"
         d="m 346.54496,195.64855 -9.16,0.28 0,2.04 0.6,0 c 2.44,0 2.56,0.16 2.56,3.88 l 0,6.96 0,1.84 c 0,1.64 -0.44,1.88 -3,1.88 l -0.16,0 0,2.04 12.2,0 0,-2.04 c -2.36,0 -2.76,-0.28 -2.76,-1.84 l 0,-1.88 0,-3.88 c 0,-1.8 0.16,-2.84 0.64,-3.8 0.64,-1.44 2.04,-2.36 3.48,-2.36 1.88,0 2.92,1.36 2.92,3.92 l 0,6.12 0,1.88 c 0,1.56 -0.4,1.84 -2.76,1.84 l 0,2.04 12.2,0 0,-2.04 -0.16,0 c -2.56,0 -3,-0.24 -3,-1.88 l 0,-1.84 0,-6.68 c 0,-2.48 -0.44,-4 -1.52,-5.16 -1.08,-1.24 -2.88,-1.92 -4.96,-1.92 -3.16,0 -5.16,1.16 -7.12,4.12 l 0,-3.52 z" />
      <path
         inkscape:connector-curvature="0"
         id="path3393"
         style="font-style:normal;font-variant:normal;font-weight:bold;font-stretch:normal;font-family:'Century Schoolbook L';-inkscape-font-specification:'Century Schoolbook L Medium';text-align:center;text-anchor:middle"
         d="m 374.24684,185.08855 -9.6,0.6 0,2.04 0.76,0 c 2.44,0 2.56,0.16 2.56,3.72 l 0,17.36 0,1.88 c 0,1.6 -0.44,1.84 -3.04,1.84 l -0.16,0 0,2.04 12.48,0 0,-2.04 -0.28,0 c -0.76,0 -1.84,-0.12 -2.12,-0.28 -0.48,-0.24 -0.6,-0.56 -0.6,-1.56 l 0,-1.88 0,-23.72 z" />
      <path
         inkscape:connector-curvature="0"
         id="path3395"
         style="font-style:normal;font-variant:normal;font-weight:bold;font-stretch:normal;font-family:'Century Schoolbook L';-inkscape-font-specification:'Century Schoolbook L Medium';text-align:center;text-anchor:middle"
         d="m 392.42934,208.24855 -4.24,-8.64 c -0.2,-0.4 -0.32,-0.8 -0.32,-1.08 0,-0.56 0.44,-0.84 1.4,-0.84 l 0.72,0 0,-2.04 -11.36,0 0,2.04 c 1.48,0.04 1.8,0.28 2.44,1.6 l 8.2,15.92 -0.92,1.72 c -1.04,2.04 -2.28,3.16 -3.4,3.16 -0.2,0 -0.36,-0.12 -0.36,-0.24 0,-0.04 0,-0.08 0.04,-0.12 0.24,-0.4 0.32,-0.8 0.32,-1.36 0,-1.6 -1.24,-2.72 -3,-2.72 -1.96,0 -3.48,1.52 -3.48,3.48 0,2.2 1.96,3.68 4.96,3.68 3.36,0 5.76,-2.04 7.92,-6.76 l 7,-15.08 c 1.16,-2.44 2,-3.2 3.64,-3.28 l 0,-2.04 -9,0 0,2.04 0.44,0 c 1.72,0 2.68,0.56 2.68,1.6 0,0.44 -0.16,1.16 -0.36,1.64 l -3.32,7.32 z" />
      <path
         inkscape:connector-curvature="0"
         id="path3397"
         style="font-style:normal;font-variant:normal;font-weight:bold;font-stretch:normal;font-family:'Century Schoolbook L';-inkscape-font-specification:'Century Schoolbook L Medium';text-align:center;text-anchor:middle"
         d="m 435.60684,205.44855 0,-0.64 c 0,-5.96 -3.72,-9.76 -9.56,-9.76 -3.2,0 -5.88,1.04 -7.88,3.08 -1.8,1.88 -2.88,4.52 -2.88,7.16 0,2.84 1.24,5.72 3.24,7.44 1.84,1.56 4.52,2.44 7.56,2.44 4.68,0 7.76,-2.08 9.52,-6.36 l -1.96,-0.8 c -1.6,3.12 -3.4,4.44 -6,4.44 -1.84,0 -3.44,-0.88 -4.44,-2.4 -0.68,-1.08 -0.96,-2.32 -1,-4.6 l 13.4,0 z m -13.36,-2.2 c 0,-3.8 1.52,-6.12 3.92,-6.12 2.04,0 3.16,1.68 3.16,4.84 0,0.96 -0.28,1.28 -1.08,1.28 l -6,0 z" />
      <path
         inkscape:connector-curvature="0"
         id="path3399"
         style="font-style:normal;font-variant:normal;font-weight:bold;font-stretch:normal;font-family:'Century Schoolbook L';-inkscape-font-specification:'Century Schoolbook L Medium';text-align:center;text-anchor:middle"
         d="m 457.61559,201.84855 c 0,-2.6 -0.48,-3.84 -1.88,-4.96 -1.48,-1.2 -4,-1.84 -7.12,-1.84 -5.52,0 -9.12,2.04 -9.12,5.16 0,1.72 1.4,3 3.24,3 1.84,0 3.28,-1.12 3.28,-2.6 0,-0.48 -0.2,-1.04 -0.56,-1.52 -0.36,-0.44 -0.36,-0.48 -0.36,-0.68 0,-0.68 1.36,-1.28 2.96,-1.28 2.4,0 3.28,1.04 3.28,3.8 l 0,2.08 c -0.44,0.12 -0.96,0.24 -1.32,0.28 -4.04,0.88 -5.44,1.24 -7.32,2 -2.92,1.2 -4.28,2.8 -4.28,5.2 0,2.96 2.28,4.68 6.16,4.68 3.44,0 5.52,-0.76 7.64,-2.84 0.68,1.8 2.2,2.84 4.24,2.84 2.28,0 4.4,-1.6 4.4,-3.32 0,-0.4 -0.24,-0.64 -0.6,-0.64 -0.24,0 -0.48,0.08 -0.8,0.28 -0.36,0.24 -0.48,0.28 -0.76,0.28 -0.88,0 -1.08,-0.56 -1.08,-2.88 l 0,-7.04 z m -6.28,3.32 0,2.24 c 0,3.08 -1.44,5.04 -3.68,5.04 -1.56,0 -2.56,-1.08 -2.56,-2.8 0,-2.12 1.24,-3.32 4.12,-4 l 2.12,-0.48 z" />
      <path
         inkscape:connector-curvature="0"
         id="path3401"
         style="font-style:normal;font-variant:normal;font-weight:bold;font-stretch:normal;font-family:'Century Schoolbook L';-inkscape-font-specification:'Century Schoolbook L Medium';text-align:center;text-anchor:middle"
         d="m 476.66871,195.64855 -5.2,0 0,-7.92 -2.52,0 c -0.64,5.12 -2.8,7.8 -6.6,8.24 l 0,2.08 2.84,0 0,9.56 c 0,3.28 0.16,4.24 0.84,5.36 0.84,1.4 2.56,2.2 4.84,2.2 2.28,0 4.08,-0.76 5.16,-2.2 1,-1.28 1.6,-3.2 1.6,-4.92 0,-0.2 0,-0.52 -0.04,-0.92 l -2.12,0 c 0.04,2.96 -0.88,4.64 -2.52,4.64 -1.16,0 -1.48,-0.72 -1.48,-3.44 l 0,-10.28 5.2,0 0,-2.4 z" />
      <path
         inkscape:connector-curvature="0"
         id="path3403"
         style="font-style:normal;font-variant:normal;font-weight:bold;font-stretch:normal;font-family:'Century Schoolbook L';-inkscape-font-specification:'Century Schoolbook L Medium';text-align:center;text-anchor:middle"
         d="m 504.30434,208.24855 -4.24,-8.64 c -0.2,-0.4 -0.32,-0.8 -0.32,-1.08 0,-0.56 0.44,-0.84 1.4,-0.84 l 0.72,0 0,-2.04 -11.36,0 0,2.04 c 1.48,0.04 1.8,0.28 2.44,1.6 l 8.2,15.92 -0.92,1.72 c -1.04,2.04 -2.28,3.16 -3.4,3.16 -0.2,0 -0.36,-0.12 -0.36,-0.24 0,-0.04 0,-0.08 0.04,-0.12 0.24,-0.4 0.32,-0.8 0.32,-1.36 0,-1.6 -1.24,-2.72 -3,-2.72 -1.96,0 -3.48,1.52 -3.48,3.48 0,2.2 1.96,3.68 4.96,3.68 3.36,0 5.76,-2.04 7.92,-6.76 l 7,-15.08 c 1.16,-2.44 2,-3.2 3.64,-3.28 l 0,-2.04 -9,0 0,2.04 0.44,0 c 1.72,0 2.68,0.56 2.68,1.6 0,0.44 -0.16,1.16 -0.36,1.64 l -3.32,7.32 z" />
      <path
         inkscape:connector-curvature="0"
         id="path3405"
         style="font-style:normal;font-variant:normal;font-weight:bold;font-stretch:normal;font-family:'Century Schoolbook L';-inkscape-font-specification:'Century Schoolbook L Medium';text-align:center;text-anchor:middle"
         d="m 526.71746,195.04855 c -6.36,0 -11.08,4.32 -11.08,10.08 0,5.8 4.6,10.04 10.92,10.04 6.32,0 11,-4.24 11,-9.96 0,-5.68 -4.76,-10.16 -10.84,-10.16 z m -0.08,2.08 c 1.4,0 2.68,0.96 3.2,2.36 0.48,1.32 0.8,3.6 0.8,5.68 0,5.08 -1.48,7.92 -4.04,7.92 -2.68,0 -4.04,-2.68 -4.04,-7.96 0,-5.28 1.4,-8 4.08,-8 z" />
      <path
         inkscape:connector-curvature="0"
         id="path3407"
         style="font-style:normal;font-variant:normal;font-weight:bold;font-stretch:normal;font-family:'Century Schoolbook L';-inkscape-font-specification:'Century Schoolbook L Medium';text-align:center;text-anchor:middle"
         d="m 562.21059,195.64855 -9.48,0.28 0,2.04 0.64,0 c 2.44,0 2.56,0.16 2.56,3.88 l 0,3.2 c 0,2 -0.16,3.12 -0.68,4.12 -0.64,1.36 -2.04,2.28 -3.56,2.28 -2,0 -2.84,-1.24 -2.84,-4.28 l 0,-11.52 -9.48,0.28 0,2.04 0.64,0 c 2.48,0 2.52,0.08 2.56,3.88 l 0,5.08 c 0,2.96 0.08,3.68 0.64,4.8 1.08,2.2 3.2,3.44 5.92,3.44 2.84,0 4.76,-1.04 7.08,-3.88 l 0,3.28 9.32,-0.44 0,-2.16 -1.12,0 c -1.88,0 -2.2,-0.28 -2.2,-1.72 l 0,-0.92 0,-13.68 z" />
      <path
         inkscape:connector-curvature="0"
         id="path3409"
         style="font-style:normal;font-variant:normal;font-weight:bold;font-stretch:normal;font-family:'Century Schoolbook L';-inkscape-font-specification:'Century Schoolbook L Medium';text-align:center;text-anchor:middle"
         d="m 575.91246,195.64855 -8.92,0.28 0,2.04 0.6,0 c 2.44,0 2.56,0.16 2.56,3.88 l 0,6.96 0,1.84 c 0,1.64 -0.44,1.88 -3,1.88 l -0.16,0 0,2.04 13.36,0 0,-2.04 -0.88,0 c -2.56,0 -3,-0.24 -3,-1.88 l 0,-1.84 0,-0.8 c 0,-2.8 0.68,-5.96 1.68,-7.72 0.84,-1.48 1.68,-2.2 3.04,-2.6 -0.52,0.72 -0.68,1.16 -0.68,1.88 0,1.72 1.28,2.96 3,2.96 1.96,0 3.44,-1.48 3.44,-3.44 0,-2.32 -1.84,-4.04 -4.4,-4.04 -3.08,0 -5.2,1.76 -6.64,5.44 l 0,-4.84 z" />
      <path
         inkscape:connector-curvature="0"
         id="path3411"
         style="font-style:normal;font-variant:normal;font-weight:bold;font-stretch:normal;font-family:'Century Schoolbook L';-inkscape-font-specification:'Century Schoolbook L Medium'"
         d="m 139.87371,249.11877 -5,0 0,-2.28 c 0,-2.68 0.08,-3.56 0.48,-4.44 0.4,-0.92 1.32,-1.6 2.12,-1.6 0.36,0 0.64,0.16 0.64,0.32 0,0.12 -0.04,0.2 -0.2,0.36 -0.6,0.48 -1,1.36 -1,2.12 0,1.56 1.32,2.76 3,2.76 1.84,0 3.2,-1.4 3.2,-3.28 0,-2.48 -2.48,-4.36 -5.8,-4.36 -5.24,0 -8.72,3.96 -8.72,9.88 l 0,0.52 -3.48,0 0,2.4 3.48,0 0,10.76 0,1.88 c 0,1.6 -0.44,1.88 -3.04,1.88 l -0.16,0 0,2 13.2,0 0,-2 -0.72,0 c -2.56,0 -3,-0.28 -3,-1.88 l 0,-1.88 0,-10.76 5,0 0,-2.4 z" />
      <path
         inkscape:connector-curvature="0"
         id="path3413"
         style="font-style:normal;font-variant:normal;font-weight:bold;font-stretch:normal;font-family:'Century Schoolbook L';-inkscape-font-specification:'Century Schoolbook L Medium'"
         d="m 152.42059,248.51877 c -6.36,0 -11.08,4.32 -11.08,10.08 0,5.8 4.6,10.04 10.92,10.04 6.32,0 11,-4.24 11,-9.96 0,-5.68 -4.76,-10.16 -10.84,-10.16 z m -0.08,2.08 c 1.4,0 2.68,0.96 3.2,2.36 0.48,1.32 0.8,3.6 0.8,5.68 0,5.08 -1.48,7.92 -4.04,7.92 -2.68,0 -4.04,-2.68 -4.04,-7.96 0,-5.28 1.4,-8 4.08,-8 z" />
      <path
         inkscape:connector-curvature="0"
         id="path3415"
         style="font-style:normal;font-variant:normal;font-weight:bold;font-stretch:normal;font-family:'Century Schoolbook L';-inkscape-font-specification:'Century Schoolbook L Medium'"
         d="m 176.87371,248.51877 c -6.36,0 -11.08,4.32 -11.08,10.08 0,5.8 4.6,10.04 10.92,10.04 6.32,0 11,-4.24 11,-9.96 0,-5.68 -4.76,-10.16 -10.84,-10.16 z m -0.08,2.08 c 1.4,0 2.68,0.96 3.2,2.36 0.48,1.32 0.8,3.6 0.8,5.68 0,5.08 -1.48,7.92 -4.04,7.92 -2.68,0 -4.04,-2.68 -4.04,-7.96 0,-5.28 1.4,-8 4.08,-8 z" />
      <path
         inkscape:connector-curvature="0"
         id="path3417"
         style="font-style:normal;font-variant:normal;font-weight:bold;font-stretch:normal;font-family:'Century Schoolbook L';-inkscape-font-specification:'Century Schoolbook L Medium'"
         d="m 211.72684,238.55877 -10.12,0.6 0,2.04 1.28,0 c 2.44,0 2.56,0.16 2.56,3.72 l 0,6.28 c -1.52,-1.84 -3.32,-2.68 -5.84,-2.68 -5.12,0 -9.12,4.52 -9.12,10.36 0,5.8 3.56,9.76 8.76,9.76 2.88,0 4.92,-1.08 6.56,-3.48 l 0,2.88 9.36,-0.44 0,-2.16 -1.08,0 c -1.44,0 -1.56,0 -1.88,-0.28 -0.36,-0.32 -0.48,-0.8 -0.48,-2 l 0,-24.6 z m -10.28,12.68 c 2.48,0 4.08,2.88 4.08,7.32 0,4.36 -1.68,7.36 -4.16,7.36 -2.52,0 -3.96,-2.56 -3.96,-7.12 0,-4.76 1.48,-7.56 4.04,-7.56 z" />
      <path
         inkscape:connector-curvature="0"
         id="path3419"
         style="font-style:normal;font-variant:normal;font-weight:bold;font-stretch:normal;font-family:'Century Schoolbook L';-inkscape-font-specification:'Century Schoolbook L Medium'"
         d="m 237.72996,249.11877 -9.4,0.28 0,2.04 0.56,0 c 2.44,0 2.56,0.2 2.56,3.76 l 0,7.08 0,1.84 c 0,1.6 -0.44,1.88 -2.96,1.88 l -0.16,0 0,2.04 12.52,0 0,-2.04 -0.24,0 c -2.44,0 -2.88,-0.28 -2.88,-1.84 l 0,-1.88 0,-13.16 z m -3.24,-10.56 c -1.96,0 -3.56,1.6 -3.56,3.52 0,1.92 1.6,3.56 3.48,3.56 2,0 3.6,-1.56 3.6,-3.56 0,-1.92 -1.6,-3.52 -3.52,-3.52 z" />
      <path
         inkscape:connector-curvature="0"
         id="path3421"
         style="font-style:normal;font-variant:normal;font-weight:bold;font-stretch:normal;font-family:'Century Schoolbook L';-inkscape-font-specification:'Century Schoolbook L Medium'"
         d="m 251.93559,249.11877 -9.16,0.28 0,2.04 0.6,0 c 2.44,0 2.56,0.16 2.56,3.88 l 0,6.96 0,1.84 c 0,1.64 -0.44,1.88 -3,1.88 l -0.16,0 0,2.04 12.2,0 0,-2.04 c -2.36,0 -2.76,-0.28 -2.76,-1.84 l 0,-1.88 0,-3.88 c 0,-1.8 0.16,-2.84 0.64,-3.8 0.64,-1.44 2.04,-2.36 3.48,-2.36 1.88,0 2.92,1.36 2.92,3.92 l 0,6.12 0,1.88 c 0,1.56 -0.4,1.84 -2.76,1.84 l 0,2.04 12.2,0 0,-2.04 -0.16,0 c -2.56,0 -3,-0.24 -3,-1.88 l 0,-1.84 0,-6.68 c 0,-2.48 -0.44,-4 -1.52,-5.16 -1.08,-1.24 -2.88,-1.92 -4.96,-1.92 -3.16,0 -5.16,1.16 -7.12,4.12 l 0,-3.52 z" />
      <path
         inkscape:connector-curvature="0"
         id="path3423"
         style="font-style:normal;font-variant:normal;font-weight:bold;font-stretch:normal;font-family:'Century Schoolbook L';-inkscape-font-specification:'Century Schoolbook L Medium'"
         d="m 296.12184,249.11877 -5.2,0 0,-7.92 -2.52,0 c -0.64,5.12 -2.8,7.8 -6.6,8.24 l 0,2.08 2.84,0 0,9.56 c 0,3.28 0.16,4.24 0.84,5.36 0.84,1.4 2.56,2.2 4.84,2.2 2.28,0 4.08,-0.76 5.16,-2.2 1,-1.28 1.6,-3.2 1.6,-4.92 0,-0.2 0,-0.52 -0.04,-0.92 l -2.12,0 c 0.04,2.96 -0.88,4.64 -2.52,4.64 -1.16,0 -1.48,-0.72 -1.48,-3.44 l 0,-10.28 5.2,0 0,-2.4 z" />
      <path
         inkscape:connector-curvature="0"
         id="path3425"
         style="font-style:normal;font-variant:normal;font-weight:bold;font-stretch:normal;font-family:'Century Schoolbook L';-inkscape-font-specification:'Century Schoolbook L Medium'"
         d="m 308.15309,238.55877 -9.6,0.6 0,2.04 0.76,0 c 2.48,0 2.52,0.08 2.56,3.88 l 0,17.2 0,1.88 c 0,1.6 -0.44,1.84 -3.04,1.84 l -0.16,0 0,2.04 12.2,0 0,-2.04 c -2.32,0 -2.72,-0.24 -2.72,-1.88 l 0,-1.84 0,-3.88 c 0,-1.8 0.16,-2.84 0.6,-3.8 0.64,-1.44 2.04,-2.36 3.52,-2.36 1.84,0 2.84,1.36 2.84,3.92 l 0,6.12 0,1.88 c 0,1.56 -0.4,1.84 -2.76,1.84 l 0,2.04 12.2,0 0,-2.04 -0.16,0 c -2.56,0 -3,-0.24 -3,-1.88 l 0,-1.84 0,-6.68 c 0,-2.48 -0.44,-4 -1.52,-5.16 -1.08,-1.24 -2.84,-1.92 -4.92,-1.92 -3.04,0 -5.12,1.12 -6.8,3.68 l 0,-13.64 z" />
      <path
         inkscape:connector-curvature="0"
         id="path3427"
         style="font-style:normal;font-variant:normal;font-weight:bold;font-stretch:normal;font-family:'Century Schoolbook L';-inkscape-font-specification:'Century Schoolbook L Medium'"
         d="m 346.93496,258.91877 0,-0.64 c 0,-5.96 -3.72,-9.76 -9.56,-9.76 -3.2,0 -5.88,1.04 -7.88,3.08 -1.8,1.88 -2.88,4.52 -2.88,7.16 0,2.84 1.24,5.72 3.24,7.44 1.84,1.56 4.52,2.44 7.56,2.44 4.68,0 7.76,-2.08 9.52,-6.36 l -1.96,-0.8 c -1.6,3.12 -3.4,4.44 -6,4.44 -1.84,0 -3.44,-0.88 -4.44,-2.4 -0.68,-1.08 -0.96,-2.32 -1,-4.6 l 13.4,0 z m -13.36,-2.2 c 0,-3.8 1.52,-6.12 3.92,-6.12 2.04,0 3.16,1.68 3.16,4.84 0,0.96 -0.28,1.28 -1.08,1.28 l -6,0 z" />
      <path
         inkscape:connector-curvature="0"
         id="path3429"
         style="font-style:normal;font-variant:normal;font-weight:bold;font-stretch:normal;font-family:'Century Schoolbook L';-inkscape-font-specification:'Century Schoolbook L Medium'"
         d="m 369.86809,238.55877 -9.6,0.6 0,2.04 0.76,0 c 2.44,0 2.56,0.16 2.56,3.72 l 0,17.36 0,1.88 c 0,1.6 -0.44,1.84 -3.04,1.84 l -0.16,0 0,2.04 12.2,0 0,-2.04 c -2.32,0 -2.72,-0.28 -2.72,-1.88 l 0,-1.84 0,-1.12 1.84,-1.64 3.68,4.44 c 0.32,0.4 0.52,0.88 0.52,1.24 0,0.52 -0.52,0.8 -1.56,0.8 l -0.4,0 0,2.04 12.24,0 0,-2.04 c -1.4,0 -1.76,-0.28 -3.52,-2.56 l -6.28,-7.84 3.08,-2.56 c 1.64,-1.4 2.8,-1.88 4.32,-1.88 l 0.92,0 0,-2.04 -11.76,0 0,2.04 0.48,0 c 1.52,0 2.4,0.4 2.4,1.12 0,0.48 -0.28,0.96 -1,1.6 l -4.96,4.32 0,-19.64 z" />
      <path
         inkscape:connector-curvature="0"
         id="path3431"
         style="font-style:normal;font-variant:normal;font-weight:bold;font-stretch:normal;font-family:'Century Schoolbook L';-inkscape-font-specification:'Century Schoolbook L Medium'"
         d="m 397.02684,249.11877 -9.4,0.28 0,2.04 0.56,0 c 2.44,0 2.56,0.2 2.56,3.76 l 0,7.08 0,1.84 c 0,1.6 -0.44,1.88 -2.96,1.88 l -0.16,0 0,2.04 12.52,0 0,-2.04 -0.24,0 c -2.44,0 -2.88,-0.28 -2.88,-1.84 l 0,-1.88 0,-13.16 z m -3.24,-10.56 c -1.96,0 -3.56,1.6 -3.56,3.52 0,1.92 1.6,3.56 3.48,3.56 2,0 3.6,-1.56 3.6,-3.56 0,-1.92 -1.6,-3.52 -3.52,-3.52 z" />
      <path
         inkscape:connector-curvature="0"
         id="path3433"
         style="font-style:normal;font-variant:normal;font-weight:bold;font-stretch:normal;font-family:'Century Schoolbook L';-inkscape-font-specification:'Century Schoolbook L Medium'"
         d="m 416.51246,249.11877 -5.2,0 0,-7.92 -2.52,0 c -0.64,5.12 -2.8,7.8 -6.6,8.24 l 0,2.08 2.84,0 0,9.56 c 0,3.28 0.16,4.24 0.84,5.36 0.84,1.4 2.56,2.2 4.84,2.2 2.28,0 4.08,-0.76 5.16,-2.2 1,-1.28 1.6,-3.2 1.6,-4.92 0,-0.2 0,-0.52 -0.04,-0.92 l -2.12,0 c 0.04,2.96 -0.88,4.64 -2.52,4.64 -1.16,0 -1.48,-0.72 -1.48,-3.44 l 0,-10.28 5.2,0 0,-2.4 z" />
      <path
         inkscape:connector-curvature="0"
         id="path3435"
         style="font-style:normal;font-variant:normal;font-weight:bold;font-stretch:normal;font-family:'Century Schoolbook L';-inkscape-font-specification:'Century Schoolbook L Medium'"
         d="m 437.30371,260.95877 c -0.56,1.48 -0.92,2.12 -1.52,2.92 -0.96,1.28 -2.56,2.04 -4.2,2.04 -3.24,0 -5.12,-2.8 -5.12,-7.76 0,-4.76 1.76,-7.56 4.76,-7.56 1.16,0 2.12,0.48 2.12,1.12 0,0.12 -0.08,0.32 -0.44,0.76 -0.68,0.84 -0.84,1.2 -0.84,1.96 0,1.72 1.36,2.92 3.28,2.92 2.2,0 3.6,-1.36 3.6,-3.4 0,-3.28 -3.12,-5.44 -7.96,-5.44 -6.64,0 -11.44,4.32 -11.44,10.36 0,5.84 4.32,9.76 10.76,9.76 2.96,0 4.92,-0.8 6.68,-2.72 1.16,-1.2 1.8,-2.4 2.4,-4.28 l -2.08,-0.68 z" />
      <path
         inkscape:connector-curvature="0"
         id="path3437"
         style="font-style:normal;font-variant:normal;font-weight:bold;font-stretch:normal;font-family:'Century Schoolbook L';-inkscape-font-specification:'Century Schoolbook L Medium'"
         d="m 450.80934,238.55877 -9.6,0.6 0,2.04 0.76,0 c 2.48,0 2.52,0.08 2.56,3.88 l 0,17.2 0,1.88 c 0,1.6 -0.44,1.84 -3.04,1.84 l -0.16,0 0,2.04 12.2,0 0,-2.04 c -2.32,0 -2.72,-0.24 -2.72,-1.88 l 0,-1.84 0,-3.88 c 0,-1.8 0.16,-2.84 0.6,-3.8 0.64,-1.44 2.04,-2.36 3.52,-2.36 1.84,0 2.84,1.36 2.84,3.92 l 0,6.12 0,1.88 c 0,1.56 -0.4,1.84 -2.76,1.84 l 0,2.04 12.2,0 0,-2.04 -0.16,0 c -2.56,0 -3,-0.24 -3,-1.88 l 0,-1.84 0,-6.68 c 0,-2.48 -0.44,-4 -1.52,-5.16 -1.08,-1.24 -2.84,-1.92 -4.92,-1.92 -3.04,0 -5.12,1.12 -6.8,3.68 l 0,-13.64 z" />
      <path
         inkscape:connector-curvature="0"
         id="path3439"
         style="font-style:normal;font-variant:normal;font-weight:bold;font-stretch:normal;font-family:'Century Schoolbook L';-inkscape-font-specification:'Century Schoolbook L Medium'"
         d="m 489.59121,258.91877 0,-0.64 c 0,-5.96 -3.72,-9.76 -9.56,-9.76 -3.2,0 -5.88,1.04 -7.88,3.08 -1.8,1.88 -2.88,4.52 -2.88,7.16 0,2.84 1.24,5.72 3.24,7.44 1.84,1.56 4.52,2.44 7.56,2.44 4.68,0 7.76,-2.08 9.52,-6.36 l -1.96,-0.8 c -1.6,3.12 -3.4,4.44 -6,4.44 -1.84,0 -3.44,-0.88 -4.44,-2.4 -0.68,-1.08 -0.96,-2.32 -1,-4.6 l 13.4,0 z m -13.36,-2.2 c 0,-3.8 1.52,-6.12 3.92,-6.12 2.04,0 3.16,1.68 3.16,4.84 0,0.96 -0.28,1.28 -1.08,1.28 l -6,0 z" />
      <path
         inkscape:connector-curvature="0"
         id="path3441"
         style="font-style:normal;font-variant:normal;font-weight:bold;font-stretch:normal;font-family:'Century Schoolbook L';-inkscape-font-specification:'Century Schoolbook L Medium'"
         d="m 500.91996,249.11877 -9.16,0.28 0,2.04 0.6,0 c 2.44,0 2.56,0.16 2.56,3.88 l 0,6.96 0,1.84 c 0,1.64 -0.44,1.88 -3,1.88 l -0.16,0 0,2.04 12.2,0 0,-2.04 c -2.36,0 -2.76,-0.28 -2.76,-1.84 l 0,-1.88 0,-3.88 c 0,-1.8 0.16,-2.84 0.64,-3.8 0.64,-1.44 2.04,-2.36 3.48,-2.36 1.88,0 2.92,1.36 2.92,3.92 l 0,6.12 0,1.88 c 0,1.56 -0.4,1.84 -2.76,1.84 l 0,2.04 12.2,0 0,-2.04 -0.16,0 c -2.56,0 -3,-0.24 -3,-1.88 l 0,-1.84 0,-6.68 c 0,-2.48 -0.44,-4 -1.52,-5.16 -1.08,-1.24 -2.88,-1.92 -4.96,-1.92 -3.16,0 -5.16,1.16 -7.12,4.12 l 0,-3.52 z" />
      <path
         inkscape:connector-curvature="0"
         id="path3443"
         style="font-style:normal;font-variant:normal;font-weight:bold;font-stretch:normal;font-family:'Bitstream Vera Serif';-inkscape-font-specification:'Bitstream Vera Serif';text-align:center;text-anchor:middle"
         d="m 551.89746,255.28486 0,10.39062 2.96875,0 0,2.36329 -9.88281,0 0,-2.63672 q -1.36719,1.64062 -3.04688,2.42187 -1.67968,0.78125 -3.82812,0.78125 -3.1836,0 -4.90235,-1.69922 -1.69921,-1.71875 -1.69921,-4.90234 0,-3.49609 2.4414,-5.23438 2.46094,-1.73828 7.40235,-1.73828 l 3.63281,0 0,-1.23047 q 0,-2.51953 -1.19141,-3.71093 -1.1914,-1.21094 -3.6914,-1.21094 -2.07032,0 -3.20313,0.85937 -1.11328,0.83985 -1.58203,2.77344 l -2.20703,0 0,-4.47265 q 1.85547,-0.66407 3.84765,-0.9961 1.99219,-0.33203 4.19922,-0.33203 5.56641,0 8.14453,2.07031 2.59766,2.07032 2.59766,6.50391 z m -6.91406,6.23047 0,-4.16016 -2.59766,0 q -1.93359,0 -2.96875,1.05469 -1.03515,1.05469 -1.03515,3.02734 0,1.97266 0.74218,2.94922 0.76172,0.97656 2.30469,0.97656 1.60156,0 2.57813,-1.05468 0.97656,-1.05469 0.97656,-2.79297 z" />
      <path
         inkscape:connector-curvature="0"
         id="path3445"
         style="font-style:normal;font-variant:normal;font-weight:bold;font-stretch:normal;font-family:'Bitstream Vera Serif';-inkscape-font-specification:'Bitstream Vera Serif';text-align:center;text-anchor:middle"
         d="m 577.28809,247.04267 0,6.19141 -2.20704,0 q -0.11718,-1.66016 -0.89843,-2.46094 -0.78125,-0.82031 -2.26563,-0.82031 -2.26562,0 -3.57422,1.99219 -1.30859,1.99218 -1.30859,5.52734 l 0,8.20312 3.76953,0 0,2.36329 -13.63281,0 0,-2.36329 2.94922,0 0,-16.03515 -3.16407,0 0,-2.36328 10.07813,0 0,3.6914 q 1.01562,-2.16797 2.67578,-3.20312 1.67969,-1.05469 4.10156,-1.05469 0.60547,0 1.46485,0.0977 0.8789,0.0781 2.01172,0.23437 z" />
      <path
         inkscape:connector-curvature="0"
         id="path3447"
         style="font-style:normal;font-variant:normal;font-weight:bold;font-stretch:normal;font-family:'Bitstream Vera Serif';-inkscape-font-specification:'Bitstream Vera Serif';text-align:center;text-anchor:middle"
         d="m 592.93262,256.32002 q 0,-4.10157 -0.76172,-5.74219 -0.76172,-1.66016 -2.59766,-1.66016 -1.77734,0 -2.55859,1.6211 -0.76172,1.62109 -0.76172,5.42968 l 0,0.35157 6.67969,0 z m 7.59765,2.32421 -14.27734,0 0,0.15625 q 0,4.02344 1.21094,5.82032 1.21093,1.77734 3.90625,1.77734 2.24609,0 3.63281,-1.19141 1.38672,-1.1914 1.77734,-3.45703 l 3.24219,0 q -0.83984,3.53516 -3.33984,5.19532 -2.5,1.66015 -6.99219,1.66015 -5.39063,0 -8.28125,-2.83203 -2.87109,-2.85156 -2.87109,-8.125 0,-5.15625 2.94921,-8.04687 2.94922,-2.89063 8.20313,-2.89063 5.15625,0 7.91016,3.04688 2.7539,3.02734 2.92968,8.88671 z" />
      <path
         inkscape:connector-curvature="0"
         id="path3449"
         style="font-style:normal;font-variant:normal;font-weight:bold;font-stretch:normal;font-family:'Bitstream Vera Serif';-inkscape-font-specification:'Bitstream Vera Serif';text-align:center;text-anchor:middle"
         d="m 624.39746,255.28486 0,10.39062 2.96875,0 0,2.36329 -9.88281,0 0,-2.63672 q -1.36719,1.64062 -3.04688,2.42187 -1.67968,0.78125 -3.82812,0.78125 -3.1836,0 -4.90235,-1.69922 -1.69921,-1.71875 -1.69921,-4.90234 0,-3.49609 2.4414,-5.23438 2.46094,-1.73828 7.40235,-1.73828 l 3.63281,0 0,-1.23047 q 0,-2.51953 -1.19141,-3.71093 -1.1914,-1.21094 -3.6914,-1.21094 -2.07032,0 -3.20313,0.85937 -1.11328,0.83985 -1.58203,2.77344 l -2.20703,0 0,-4.47265 q 1.85547,-0.66407 3.84765,-0.9961 1.99219,-0.33203 4.19922,-0.33203 5.56641,0 8.14453,2.07031 2.59766,2.07032 2.59766,6.50391 z m -6.91406,6.23047 0,-4.16016 -2.59766,0 q -1.93359,0 -2.96875,1.05469 -1.03515,1.05469 -1.03515,3.02734 0,1.97266 0.74218,2.94922 0.76172,0.97656 2.30469,0.97656 1.60156,0 2.57813,-1.05468 0.97656,-1.05469 0.97656,-2.79297 z" />
    </g>
  </g>
</svg>
